<?xml version="1.0" encoding="UTF-8"?><svg xmlns="http://www.w3.org/2000/svg" viewBox="0 0 1259.93 595.53"><defs><style>.c{stroke-width:4px;}.c,.d{fill:none;stroke:#f8f9fa;stroke-linecap:round;stroke-linejoin:round;}.d{stroke-width:5px;}.e{fill:#f8f9fa;}</style></defs><g id="a"><g><path class="e" d="M594.3,274.42c-.42-.45-.63-1.03-.63-1.72v-2.09c0-1.18,.24-2.12,.73-2.82,.49-.69,.77-1.08,.83-1.15l41.13-58.35h-39.46c-.7,0-1.25-.21-1.67-.63s-.63-.97-.63-1.67v-1.57c0-.69,.21-1.27,.63-1.72,.42-.45,.97-.68,1.67-.68h44.99c.77,0,1.36,.21,1.78,.63,.42,.42,.63,1.01,.63,1.77v2.09c0,.77-.12,1.41-.37,1.93-.25,.52-.57,1.13-.99,1.83l-40.92,58.56h40.92c.77,0,1.36,.21,1.78,.63,.42,.42,.63,1.01,.63,1.77v1.57c0,.7-.23,1.25-.68,1.67-.45,.42-1.03,.63-1.72,.63h-46.98c-.7,0-1.25-.23-1.67-.68Z"/><path class="e" d="M652.86,274.47c-.42-.42-.63-.9-.63-1.46l.21-1.15,26.41-67.75c.56-1.39,1.57-2.09,3.03-2.09h3.55c1.46,0,2.47,.7,3.03,2.09l26.41,67.75,.21,1.15c0,.56-.21,1.04-.63,1.46-.42,.42-.91,.63-1.46,.63h-2.09c-.63,0-1.13-.17-1.51-.52-.38-.35-.64-.69-.78-1.04l-6.47-16.7h-36.96l-6.47,16.7c-.14,.35-.4,.7-.78,1.04-.38,.35-.89,.52-1.51,.52h-2.09c-.56,0-1.04-.21-1.46-.63Zm14.82-23.91h31.94l-15.97-41.13-15.97,41.13Z"/><path class="e" d="M728.81,270.76c-4.7-3.58-7.19-8.89-7.46-15.92,0-.69,.19-1.25,.57-1.67,.38-.42,.92-.63,1.62-.63h2.09c.7,0,1.24,.21,1.62,.63,.38,.42,.61,.94,.68,1.57,.42,5.15,2.35,8.96,5.79,11.43,3.45,2.47,7.78,3.71,13,3.71,5.98,0,10.6-1.97,13.83-5.9,3.24-3.93,4.85-9.13,4.85-15.61v-40.09h-38.52c-.7,0-1.25-.21-1.67-.63-.42-.42-.63-.97-.63-1.67v-1.67c0-.69,.21-1.25,.63-1.67,.42-.42,.97-.63,1.67-.63h42.7c.77,0,1.36,.21,1.77,.63,.42,.42,.63,1.01,.63,1.77v44.05c0,8.35-2.21,15.05-6.63,20.1-4.42,5.05-10.63,7.57-18.63,7.57-7.24,0-13.21-1.79-17.9-5.38Z"/><path class="e" d="M791.6,274.47c-.42-.42-.63-.97-.63-1.67v-68.48c0-.69,.21-1.25,.63-1.67,.42-.42,.97-.63,1.67-.63h1.98c.7,0,1.25,.21,1.67,.63,.42,.42,.63,.98,.63,1.67v68.48c0,.7-.21,1.25-.63,1.67-.42,.42-.97,.63-1.67,.63h-1.98c-.7,0-1.25-.21-1.67-.63Z"/><path class="e" d="M817.86,274.47c-.45-.42-.68-.97-.68-1.67v-68.38c0-.77,.23-1.36,.68-1.77,.45-.42,1.03-.63,1.72-.63h2.61c1.04,0,1.78,.45,2.19,1.36l23.7,46.14,23.8-46.14c.49-.9,1.22-1.36,2.19-1.36h2.51c.76,0,1.36,.21,1.77,.63,.42,.42,.63,1.01,.63,1.77v68.38c0,.7-.23,1.25-.68,1.67-.45,.42-1.03,.63-1.72,.63h-1.88c-.7,0-1.25-.21-1.67-.63-.42-.42-.63-.97-.63-1.67v-56.58l-19.94,39.25c-.63,1.39-1.71,2.09-3.24,2.09h-2.3c-1.53,0-2.61-.7-3.24-2.09l-19.94-39.25v56.58c0,.7-.21,1.25-.63,1.67-.42,.42-.97,.63-1.67,.63h-1.88c-.7,0-1.27-.21-1.72-.63Z"/><path class="e" d="M891.92,274.47c-.42-.42-.63-.9-.63-1.46l.21-1.15,26.41-67.75c.56-1.39,1.57-2.09,3.03-2.09h3.55c1.46,0,2.47,.7,3.03,2.09l26.41,67.75,.21,1.15c0,.56-.21,1.04-.63,1.46-.42,.42-.91,.63-1.46,.63h-2.09c-.63,0-1.13-.17-1.51-.52-.38-.35-.64-.69-.78-1.04l-6.47-16.7h-36.95l-6.47,16.7c-.14,.35-.4,.7-.78,1.04-.38,.35-.89,.52-1.51,.52h-2.09c-.56,0-1.04-.21-1.46-.63Zm14.82-23.91h31.94l-15.97-41.13-15.97,41.13Z"/><path class="e" d="M980.13,272.59l-24.22-67.33-.21-1.15c0-.56,.21-1.04,.63-1.46,.42-.42,.9-.63,1.46-.63h2.19c.63,0,1.13,.17,1.51,.52,.38,.35,.64,.7,.78,1.04l22.86,63.89,22.86-63.89c.14-.35,.4-.69,.78-1.04,.38-.35,.89-.52,1.51-.52h2.19c.56,0,1.04,.21,1.46,.63,.42,.42,.63,.91,.63,1.46l-.21,1.15-24.22,67.33c-.63,1.67-1.81,2.51-3.55,2.51h-2.92c-1.74,0-2.92-.83-3.55-2.51Z"/><path class="e" d="M1048.72,274.47c-.42-.42-.63-.97-.63-1.67v-25.58l-25.47-41.76c-.28-.56-.42-1.01-.42-1.36,0-.56,.21-1.04,.63-1.46,.42-.42,.9-.63,1.46-.63h2.09c.97,0,1.77,.52,2.4,1.57l22.65,36.85,22.65-36.85c.63-1.04,1.43-1.57,2.4-1.57h2.09c.56,0,1.04,.21,1.46,.63,.42,.42,.63,.91,.63,1.46,0,.35-.14,.8-.42,1.36l-25.47,41.76v25.58c0,.7-.23,1.25-.68,1.67-.45,.42-1.03,.63-1.72,.63h-1.98c-.7,0-1.25-.21-1.67-.63Z"/><path class="e" d="M599.78,399.74c-.45-.42-.68-.97-.68-1.67v-68.38c0-.77,.23-1.36,.68-1.77,.45-.42,1.03-.63,1.72-.63h2.61c1.04,0,1.77,.45,2.19,1.36l23.7,46.14,23.8-46.14c.49-.9,1.22-1.36,2.19-1.36h2.5c.76,0,1.36,.21,1.77,.63,.42,.42,.63,1.01,.63,1.77v68.38c0,.7-.23,1.25-.68,1.67-.45,.42-1.03,.63-1.72,.63h-1.88c-.7,0-1.25-.21-1.67-.63s-.63-.97-.63-1.67v-56.58l-19.94,39.25c-.63,1.39-1.71,2.09-3.24,2.09h-2.3c-1.53,0-2.61-.69-3.24-2.09l-19.94-39.25v56.58c0,.7-.21,1.25-.63,1.67-.42,.42-.98,.63-1.67,.63h-1.88c-.7,0-1.27-.21-1.72-.63Z"/><path class="e" d="M686.84,394.15c-4.63-4.84-6.94-12.2-6.94-22.08v-42.38c0-.7,.21-1.27,.63-1.72,.42-.45,.97-.68,1.67-.68h1.88c.76,0,1.36,.21,1.77,.63s.63,1.01,.63,1.77v42.7c0,7.66,1.77,13.36,5.32,17.12,3.55,3.76,8.56,5.64,15.03,5.64s11.38-1.88,14.93-5.64c3.55-3.76,5.32-9.46,5.32-17.12v-42.7c0-.77,.23-1.36,.68-1.77,.45-.42,1.03-.63,1.72-.63h1.88c.7,0,1.25,.23,1.67,.68,.42,.45,.63,1.03,.63,1.72v42.38c0,9.95-2.3,17.33-6.89,22.13-4.59,4.8-11.24,7.2-19.94,7.2s-15.36-2.42-19.99-7.25Z"/><path class="e" d="M747.86,399.69c-.42-.45-.63-1.03-.63-1.72v-2.09c0-1.18,.24-2.12,.73-2.82,.49-.69,.77-1.08,.83-1.15l41.13-58.35h-39.46c-.7,0-1.25-.21-1.67-.63-.42-.42-.63-.97-.63-1.67v-1.57c0-.7,.21-1.27,.63-1.72,.42-.45,.97-.68,1.67-.68h44.99c.77,0,1.36,.21,1.78,.63,.42,.42,.63,1.01,.63,1.77v2.09c0,.77-.12,1.41-.37,1.93-.25,.52-.57,1.13-.99,1.83l-40.92,58.56h40.92c.77,0,1.36,.21,1.77,.63,.42,.42,.63,1.01,.63,1.77v1.57c0,.7-.23,1.25-.68,1.67-.45,.42-1.03,.63-1.72,.63h-46.98c-.7,0-1.25-.22-1.67-.68Z"/><path class="e" d="M811.54,399.74c-.42-.42-.63-.97-.63-1.67v-5.01c0-.69,.21-1.27,.63-1.72,.42-.45,.97-.68,1.67-.68h5.01c.7,0,1.27,.23,1.72,.68,.45,.45,.68,1.03,.68,1.72v5.01c0,.7-.23,1.25-.68,1.67-.45,.42-1.03,.63-1.72,.63h-5.01c-.7,0-1.25-.21-1.67-.63Z"/><path class="e" d="M840.25,393.74c-4.52-5.12-6.96-11.99-7.31-20.62-.07-1.88-.1-4.94-.1-9.19s.03-7.45,.1-9.4c.35-8.63,2.78-15.5,7.31-20.62,4.52-5.12,11.31-7.67,20.36-7.67,6.19,0,11.34,1.13,15.45,3.39,4.11,2.26,7.15,5.12,9.13,8.56s3.08,6.98,3.29,10.6v.21c0,.56-.21,1.01-.63,1.36-.42,.35-.94,.52-1.57,.52h-2.09c-1.25,0-2.02-.73-2.3-2.19-1.32-5.91-3.72-10.09-7.2-12.53-3.48-2.43-8.18-3.65-14.09-3.65-6.54,0-11.62,1.84-15.24,5.53-3.62,3.69-5.57,9.36-5.85,17.02-.07,1.88-.1,4.77-.1,8.66s.03,6.86,.1,8.87c.28,7.66,2.23,13.33,5.85,17.02,3.62,3.69,8.7,5.53,15.24,5.53,5.91,0,10.61-1.22,14.09-3.65,3.48-2.44,5.88-6.61,7.2-12.53,.28-1.46,1.04-2.19,2.3-2.19h2.09c.63,0,1.16,.19,1.62,.57,.45,.38,.64,.89,.57,1.51-.21,3.62-1.31,7.15-3.29,10.6-1.98,3.45-5.03,6.3-9.13,8.56-4.11,2.26-9.26,3.39-15.45,3.39-9.05,0-15.83-2.56-20.36-7.67Z"/><path class="e" d="M899.02,399.69c-.42-.45-.63-1.03-.63-1.72v-2.09c0-1.18,.24-2.12,.73-2.82,.49-.69,.76-1.08,.83-1.15l41.13-58.35h-39.46c-.7,0-1.25-.21-1.67-.63-.42-.42-.63-.97-.63-1.67v-1.57c0-.7,.21-1.27,.63-1.72,.42-.45,.97-.68,1.67-.68h44.99c.77,0,1.36,.21,1.77,.63,.42,.42,.63,1.01,.63,1.77v2.09c0,.77-.12,1.41-.37,1.93-.25,.52-.57,1.13-.99,1.83l-40.92,58.56h40.92c.77,0,1.36,.21,1.77,.63,.42,.42,.63,1.01,.63,1.77v1.57c0,.7-.23,1.25-.68,1.67-.45,.42-1.03,.63-1.72,.63h-46.98c-.7,0-1.25-.22-1.67-.68Z"/></g><circle class="d" cx="340.32" cy="306.94" r="200.32"/><g><g><path class="d" d="M392.72,264.24c-1.21,5.56-4.71,16.94-13.9,23.96-7.06,5.38-16.67,5.98-24.58,1.95-4.17-2.12-10.65-4.3-19.69-4.31h-.05c-9.04,0-15.52,2.18-19.69,4.31-7.91,4.03-17.52,3.43-24.58-1.95-9.11-6.95-12.63-18.21-13.87-23.81-.16-.74-1.21-.72-1.35,.02-2.61,14.02-7.85,66.37,59.49,66.4h.05c67.57-.03,62.06-52.73,59.46-66.54-.13-.71-1.14-.72-1.29-.02Z"/><path class="c" d="M350.06,300.97c0-2.81-4-3.24-8.21-1.51-2.1,.86-4.08,.8-5.45,.56-1.24-.22-2.5-.22-3.73,0-1.37,.24-3.35,.3-5.45-.56-4.22-1.73-8.21-1.3-8.21,1.51s-.32,6.47,15.49,6.48h.07c15.81-.01,15.49-3.68,15.49-6.48Z"/></g><g><rect class="d" x="275.84" y="161.62" width="117.38" height="68.96"/><line class="d" x1="393.21" y1="230.58" x2="432.77" y2="230.58"/><line class="d" x1="236.28" y1="230.58" x2="275.84" y2="230.58"/></g></g></g><g id="b"><path class="d" d="M411.43,369.09l9.53,17.89-9.03,4.86,12.78,6.97c1.59,.87,2.6,2.52,2.62,4.34,.1,10.12-2.05,45.43-32.19,96.51"/><path class="d" d="M393.94,355.58h0l-45.96,37.03-6.3-10.32-7.06-11.55c20.21,0,36.25-15.51,42.91-23.13,1.88-2.15,5.16-2.29,7.23-.32,6.11,5.84,12.36,11.12,18.61,15.9,26.77,20.47,53.3,31.58,66.42,36.29,5.23,1.88,8.98,6.51,9.75,12.02l4.02,35.49"/><path class="d" d="M399.02,360.24s10.05,50.8-30.56,145.06"/><path class="d" d="M257.71,369.09l-9.57,17.89,9.03,4.86-12.78,6.97c-1.59,.87-2.6,2.52-2.62,4.34-.1,9.81,1.92,43.3,29.51,91.89"/><path class="d" d="M269.55,360.24s-9.41,50.03,30.15,142.9"/><path class="d" d="M275.2,355.58h0l45.96,37.03,6.3-10.32,7.06-11.55c-20.21,0-36.25-15.51-42.91-23.13-1.88-2.15-5.16-2.29-7.23-.32-6.11,5.84-12.36,11.12-18.61,15.9-26.77,20.47-53.3,31.58-66.42,36.29-5.23,1.88-8.98,6.51-9.75,12.02l-2.74,24.2"/><line class="d" x1="347.97" y1="392.61" x2="353.49" y2="506.84"/><line class="d" x1="321.16" y1="392.61" x2="316.33" y2="505.84"/></g></svg>